<?xml version="1.0" encoding="utf-8"?>
<!-- Svg Vector Icons : http://www.onlinewebfonts.com/icon -->
<!DOCTYPE svg PUBLIC "-//W3C//DTD SVG 1.1//EN" "http://www.w3.org/Graphics/SVG/1.1/DTD/svg11.dtd">
<svg version="1.1" xmlns="http://www.w3.org/2000/svg" xmlns:xlink="http://www.w3.org/1999/xlink" x="0px" y="0px" viewBox="0 0 256 256" enable-background="new 0 0 256 256" xml:space="preserve">
<metadata> Svg Vector Icons : http://www.onlinewebfonts.com/icon </metadata>
<g><g><path fill="#000000" d="M82.9,130.1c-7-1.6-15.7-1.5-15.7-1.5s-0.4,2,0,4.4c0.4,2.4,0.8,4.8,3.2,6.6c2.4,1.8,23.4,1.2,23.4,1.2s0.8-0.3,0-2.4C92.9,136.3,89.9,131.8,82.9,130.1z"/><path fill="#000000" d="M157.1,158H98.3c0,0-1.5-0.2-1.8,1c-0.8,4.4-1.7,5.5,0,7c0.9,0.8,15.9,3.9,30.1,3.8c18.8,0,29.1-1.6,31.6-3.8c1.6-1.4,0.4-4.5,0-6.4C158,158.2,157.1,158,157.1,158z"/><path fill="#000000" d="M169.1,101c-0.5-1.3-3.3-8.9-8.3-13.5c-4.9-4.6-11.5-4.4-15.9-4.6c-4.4-0.2-40.2-0.5-45,0.6c-4.8,1.1-7.5,6.4-7.5,6.4l-7.9,14.8h85.9C170.5,104.7,169.6,102.3,169.1,101z"/><path fill="#000000" d="M128,10C62.8,10,10,62.8,10,128c0,65.2,52.8,118,118,118c65.2,0,118-52.8,118-118C246,62.8,193.2,10,128,10z M192.6,176.4c-3.7,2.7-13.1,1.1-13.1,1.1l-2.3-1.5l-1.2-2.6c0,0-19.6,0.7-49.6,1.1s-45.9-0.2-45.9-0.2s-1.3,2.1-3.9,2.9c-4.6,1.4-10.4,0-10.4,0s-3.1-1.8-5-4.8c-1.2-2-2-7.3-2-7.3l0.5-30c0,0-0.6-8,4.7-12.2c3.9-3.1,7.9-5.7,10.1-7.9c3.4-3.3,3.3-7.1,3.3-7.1s-4.6,1.5-8.8-1c-4.2-2.5-2.7-6.9,2.9-7.7c5.6-0.8,12.5,0,12.5,0s2.7-5,4.8-9.2c2.1-4.2,6.3-8.8,10.8-10.2c5.7-1.8,27.2-2.6,45.5-1.3c15.3,1,19.5,8.5,19.5,8.5l8.8,12.1c0,0,5.9-0.8,12.7,0.8c6.7,1.5,3.1,7.8-0.4,7.9c-3.5,0.2-6.6,0-6.6,0s-0.5,2.8,3,6.8c3.5,4,7.1,5.9,9.9,8.3c3.6,3,3.7,8.1,3.7,8.1l0.6,32.8C196.7,163.9,196.3,173.7,192.6,176.4z"/><path fill="#000000" d="M173.1,130.1c-7,1.6-10,6.2-10.8,8.3c-0.8,2.1,0,2.4,0,2.4s21.1,0.6,23.4-1.2c2.4-1.8,2.7-4.2,3.2-6.6c0.4-2.4,0-4.4,0-4.4S180.1,128.6,173.1,130.1z"/></g></g>
</svg>